<svg xmlns="http://www.w3.org/2000/svg" xmlns:xlink="http://www.w3.org/1999/xlink" width="48" height="48" viewBox="0 0 48 48">
    <defs>
        <linearGradient id="dglzp89j0a" x1="0%" x2="99.372%" y1="0%" y2="99.372%">
            <stop offset="0%" stop-color="#F4F4F4"/>
            <stop offset="100%" stop-color="#C4C4C4"/>
        </linearGradient>
        <path id="me9vey6kbb" d="M22 0C9.85 0 0 9.85 0 22s9.85 22 22 22 22-9.85 22-22S34.15 0 22 0zm0 2c11.046 0 20 8.954 20 20s-8.954 20-20 20S2 33.046 2 22 10.954 2 22 2z"/>
    </defs>
    <g fill="none" fill-rule="evenodd">
        <g>
            <g transform="translate(-1044 -1038) translate(1044 1038)">
                <rect width="48" height="48" fill="url(#dglzp89j0a)" rx="24"/>
                <path fill="#164193" d="M25.496 29.788L32 23.285 34 25.285 24 35.285 14 25.285 16 23.285 22.212 29.496 22.212 12 25.496 12z"/>
                <g transform="translate(2 2)">
                    <mask id="k88p5io8sc" fill="#fff">
                        <use xlink:href="#me9vey6kbb"/>
                    </mask>
                    <use fill="#979797" fill-rule="nonzero" xlink:href="#me9vey6kbb"/>
                    <g mask="url(#k88p5io8sc)">
                        <g>
                            <g>
                                <path fill="#50B748" d="M0 0L24 14 0 28z" transform="translate(-3 -5) translate(1 14)"/>
                                <path fill="#F29326" d="M48 0L48 28 24 14z" transform="translate(-3 -5) translate(1 14)"/>
                            </g>
                            <g>
                                <path fill="#009DDE" d="M24 14L0 28 0 0z" transform="translate(-3 -5) rotate(-60 36.624 20.134)"/>
                                <path fill="#E20714" d="M24 14L48 28 48 0z" transform="translate(-3 -5) rotate(-60 36.624 20.134)"/>
                            </g>
                            <g>
                                <path fill="#164193" d="M24 14L0 28 0 0z" transform="translate(-3 -5) rotate(60 12.376 21.866)"/>
                                <path fill="#804996" d="M24 14L48 28 48 0z" transform="translate(-3 -5) rotate(60 12.376 21.866)"/>
                            </g>
                        </g>
                    </g>
                </g>
            </g>
        </g>
    </g>
</svg>
