/* XPM */
static char *live_installer[] = {
/* columns rows colors chars-per-pixel */
"48 48 157 2 ",
"   c #313131",
".  c gray20",
"X  c #343434",
"o  c #353535",
"O  c gray21",
"+  c #373737",
"@  c gray23",
"#  c #3C3C3C",
"$  c gray25",
"%  c #4C4C4C",
"&  c gray30",
"*  c #4E4E4E",
"=  c gray31",
"-  c #505050",
";  c #535353",
":  c gray33",
">  c #585858",
",  c gray35",
"<  c gray36",
"1  c #5D5D5D",
"2  c gray38",
"3  c gray40",
"4  c gray43",
"5  c #6F6F6F",
"6  c #767676",
"7  c gray48",
"8  c gray49",
"9  c #006FD1",
"0  c #0370D1",
"q  c #0471D1",
"w  c #0571D1",
"e  c #0672D2",
"r  c #0A74D2",
"t  c #0F76D1",
"y  c #0F76D2",
"u  c #1278D1",
"i  c #177AD1",
"p  c #1D7CD1",
"a  c #1E7ED3",
"s  c #1F7FD4",
"d  c #2080D5",
"f  c #2882D2",
"g  c #2983D3",
"h  c #2D84D1",
"j  c #3288D3",
"k  c #3589D2",
"l  c #3288D5",
"z  c #3A8AD2",
"x  c #3B8BD2",
"c  c #3C8CD2",
"v  c #388BD5",
"b  c #5697D1",
"n  c #5197D4",
"m  c #5297D5",
"M  c #5698D2",
"N  c #5298D5",
"B  c #649DD0",
"V  c #5FA0DA",
"C  c #5FA1DC",
"Z  c #75A7D4",
"A  c #7FADD5",
"S  c #7CADD9",
"D  c #818181",
"F  c gray61",
"G  c gray62",
"H  c #A9A9A9",
"J  c #AAAAAA",
"K  c gray69",
"L  c #B6B6B6",
"P  c #BCBCBC",
"I  c gray75",
"U  c #86B3DB",
"Y  c #82B3DF",
"T  c #84B4DF",
"R  c #96B6D3",
"E  c #94B8D7",
"W  c #B3C2CF",
"Q  c #A6C0D6",
"!  c #A7C0D6",
"~  c #ACC6DC",
"^  c #B3C3D1",
"/  c #B5C5D3",
"(  c #B4C6D6",
")  c #B9C7D4",
"_  c #BEC9D2",
"`  c #B5C9DA",
"'  c #B9CAD9",
"]  c #BFD0E0",
"[  c gray77",
"{  c gray79",
"}  c #CACACA",
"|  c #CBCBCB",
" . c gray80",
".. c #CDCDCD",
"X. c #CECECE",
"o. c gray81",
"O. c #C3CAD0",
"+. c #C0CAD3",
"@. c #C7CED3",
"#. c #C6CFD7",
"$. c #CDD2D7",
"%. c #D0D0D0",
"&. c gray82",
"*. c #D2D2D2",
"=. c LightGray",
"-. c gray83",
";. c #D5D5D5",
":. c #D4D5D7",
">. c gray84",
",. c #D7D7D7",
"<. c #D5D7DA",
"1. c #D5DADD",
"2. c #D8D8D8",
"3. c gray85",
"4. c #DADADA",
"5. c gray86",
"6. c #D9DBDE",
"7. c gainsboro",
"8. c #DDDDDD",
"9. c gray87",
"0. c #DFDFDF",
"q. c #C5D6E5",
"w. c #C6D8E8",
"e. c gray88",
"r. c #E1E1E1",
"t. c #E2E2E2",
"y. c gray89",
"u. c #E1E3E5",
"i. c #E4E4E4",
"p. c gray90",
"a. c #E6E6E6",
"s. c #E7E7E7",
"d. c #E6E8EA",
"f. c gray91",
"g. c #E9E9E9",
"h. c #EAEAEA",
"j. c gray92",
"k. c #ECECEC",
"l. c gray93",
"z. c #EEEEEE",
"x. c #EFEFEF",
"c. c gray94",
"v. c #F1F1F1",
"b. c gray95",
"n. c #F3F3F3",
"m. c #F4F4F4",
"M. c gray96",
"N. c #F6F6F6",
"B. c gray97",
"V. c #F8F8F8",
"C. c #F9F9F9",
"Z. c gray98",
"A. c #FBFBFB",
"S. c gray99",
"D. c #FDFDFD",
"F. c #FEFEFE",
"G. c None",
/* pixels */
"G.G.G.G.G.G.G.G.G.G.G.G.G.G.G.G.G.G.G.j.j.y.y.y.y.y.y.i.l.G.G.G.G.G.G.G.G.G.G.G.G.G.G.G.G.G.G.G.",
"G.G.G.G.G.G.G.G.G.G.G.G.G.G.G.x.i.y.7.y.7.y.y.7.y.y.y.y.y.y.y.i.l.G.G.G.G.G.G.G.G.G.G.G.G.G.G.G.",
"G.G.G.G.G.G.G.G.G.G.G.G.G.l.y.0.y.7.2.>.=.| | [ | | | =.=.2.y.y.y.y.j.G.G.G.G.G.G.G.G.G.G.G.G.G.",
"G.G.G.G.G.G.G.G.G.G.G.c.7.7.7.2.=.| [ | [ | | | [ | | [ | | | o.7.7.y.y.l.G.G.G.G.G.G.G.G.G.G.G.",
"G.G.G.G.G.G.G.G.G.G.y.7.2.>.| | | [ [ | | | [ | [ | | [ | | | [ [ o.2.y.y.i.G.G.G.G.G.G.G.G.G.G.",
"G.G.G.G.G.G.G.G.G.7.2.2.o.| | | | | | | [ | | | | | | | | [ | | | | | o.7.7.y.G.G.G.G.G.G.G.G.G.",
"G.G.G.G.G.G.G.G.2.2.>. . .| | | | | | | | | | | | | | | | | | | | | | | o.>.7.y.G.G.G.G.G.G.G.G.",
"G.G.G.G.G.G.G.2.2.=.|  . . . .| | o.| | o.| | o.| o.| o.| | | o.| o.| | | o.>.7.7.G.G.G.G.G.G.G.",
"G.G.G.G.G.G.2.>.=.o.o.| o. .o.| o. . .o. . .o. .o.| | o.| o.| o.o.| o.| o.| o.=.7.y.G.G.G.G.G.G.",
"G.G.G.G.G.7.2.>.o.o.o.o.o.o.W B h t 9 t h B W X.o.o.o.o.o.o.o.o.=.X.o.o.o.o.o.o.2.7.7.G.G.G.G.G.",
"G.G.G.G.7.2.>.o.o.o.o.o.O.b q 9 9 9 9 9 9 9 0 b O.o.o.o.o.o.o.o.o.X.o.o.o.=.o.o.=.2.y.y.G.G.G.G.",
"G.G.G.G.>.>.=.o.=.=.=.^ p 9 9 9 9 9 9 9 9 9 9 9 p ^ =.=.=.=.o.=.=.X.=.=.=.X.=.o.=.=.7.7.c.G.G.G.",
"G.G.G.2.2.>.=.=.=.o._ i 9 9 9 9 9 9 9 9 9 9 9 9 9 i _ =.=.=.=.=.=.=.=.X.=.=.=.=.=.o.>.2.7.G.G.G.",
"G.G.j.2.>.>.=.=.=.=.x 9 9 9 9 9 9 9 9 9 9 9 9 9 9 9 x @.^ _ =.=.=.=.=.=.=.=.=.=.=.=.>.2.7.l.G.G.",
"G.G.2.2.>.=.>.=.=.R 9 9 9 9 9 9 9 9 9 9 9 9 9 9 9 9 9 9 9 9 t b ) >.=.=.=.=.=.=.>.=.>.>.7.7.G.G.",
"G.G.7.2.>.>.>.>.>.x 9 9 9 9 9 9 9 9 9 9 9 9 9 9 9 9 9 9 9 9 9 9 q Z >.>.>.>.>.>.>.>.>.>.7.7.G.G.",
"G.y.2.2.>.2.2.2.$.q 9 9 9 9 9 9 9 9 9 9 9 9 9 9 9 9 k U / :.>.<.>.<.#.,.,.,.2.2.2.,.,.,.2.7.i.G.",
"G.7.7.2.2.2.2.2.! 9 9 9 9 9 9 9 9 9 9 9 9 9 9 9 g ! 2.2.>.2.2.2.2.>.,.2.2.2.2.2.2.2.2.2.>.y.y.G.",
"G.7.7.7.2.7.7.2.E 9 9 9 9 9 9 9 9 9 9 9 9 9 9 m <.5.2.K 6 % X   O % 6 K 2.2.5.2.5.2.2.5.5.7.7.G.",
"l.0.7.7.2.7.2.' j 9 9 9 9 9 9 9 9 9 9 9 9 9 m 7.2.P ,                   , P 7.5.7.5.5.5.2.7.y.l.",
"d.7.7.7.7.7.` y 9 9 9 9 9 9 9 9 9 9 9 9 9 m 7.7.F O                       O G 2.7.7.7.7.7.7.0.j.",
"i.y.0.7.7.1.d 0 9 9 9 9 9 9 9 9 9 9 9 9 g 6.7.G     # <                       G 0.7.0.7.7.y.y.i.",
"i.0.0.0.7.S 9 9 9 9 9 9 9 9 9 9 9 9 9 9 ~ 7.I O   # 4 4 O                     O [ e.7.7.0.7.y.i.",
"y.y.y.y.y.l 9 9 9 9 9 9 9 9 9 9 9 9 9 x y.e.,     2 5 5 &                       > 0.y.y.y.y.y.y.",
"i.i.y.y.y.r 9 9 9 9 9 9 9 9 9 9 9 9 9 U y.L     $ 3 4 5 3                         L y.y.y.y.i.i.",
"i.i.i.i.y.9 9 9 9 9 9 9 9 9 9 9 9 9 9 ] i.7         @ , 4 #   #                   7 y.i.y.i.i.j.",
"j.i.i.i.p.d 9 9 9 9 9 9 9 9 9 9 9 9 9 u.i.&               : | i.| :               & i.i.i.i.j.i.",
"l.s.s.s.p.B 9 9 9 9 9 9 9 9 9 9 9 9 0 s.i.O               o.i.i.i.|               O i.j.i.i.i.l.",
"n.i.j.i.d.q.q 0 9 9 9 9 9 9 9 9 9 9 9 j.i.              # j.i.j.i.j.@               j.i.j.j.i.B.",
"G.j.j.j.j.d.T 9 9 9 9 9 9 9 9 9 9 9 9 s.j.X               o.s.j.j.o.                j.j.i.j.j.G.",
"G.k.j.j.j.j.j.Y q 9 9 9 9 9 9 9 9 9 9 d.j.&               ; o.j.o.:               & j.j.j.j.l.G.",
"G.c.l.j.j.k.k.j.w.C d q 9 9 9 9 9 9 9 w.j.8                   @                   8 j.j.l.l.c.G.",
"G.G.l.l.l.l.l.l.l.l.l.l.l.l.l.l.l.l.l.l.l.[                                       P l.l.l.l.G.G.",
"G.G.c.c.l.c.l.c.l.l.l.c.c.l.c.l.l.c.l.c.l.l.<                                   < l.l.c.c.c.G.G.",
"G.G.B.c.c.c.c.c.c.c.c.c.c.c.c.c.c.c.c.c.l.c.o.O                               O o.c.c.c.c.C.G.G.",
"G.G.G.c.c.c.c.c.c.c.n.c.c.c.c.c.c.c.c.c.c.c.c.J                               J c.c.c.c.c.G.G.G.",
"G.G.G.G.c.n.c.B.B.c.n.c.B.c.c.n.c.c.B.c.B.c.c.c.J O                       O J c.c.c.c.c.G.G.G.G.",
"G.G.G.G.n.B.c.B.c.n.n.c.c.B.n.n.B.c.c.B.c.c.B.c.c.o.<                   < =.B.c.B.c.B.B.G.G.G.G.",
"G.G.G.G.G.B.c.c.B.c.n.B.B.c.B.c.B.c.B.c.B.B.c.B.B.c.B.[ D & O   O & D [ c.c.B.c.B.c.B.G.G.G.G.G.",
"G.G.G.G.G.G.B.B.B.B.n.B.n.B.B.B.B.c.B.B.B.c.B.B.B.B.B.c.B.B.B.c.B.B.B.c.B.B.B.B.B.B.G.G.G.G.G.G.",
"G.G.G.G.G.G.G.V.B.B.V.B.B.B.B.B.B.B.B.B.B.B.C.B.B.B.B.C.B.B.B.C.B.B.B.C.B.B.B.B.B.G.G.G.G.G.G.G.",
"G.G.G.G.G.G.G.G.V.B.C.C.C.B.B.C.C.C.C.B.B.C.C.C.C.B.C.C.C.B.C.C.B.C.B.C.B.C.B.C.G.G.G.G.G.G.G.G.",
"G.G.G.G.G.G.G.G.G.C.C.C.C.C.C.C.C.C.C.C.C.C.C.C.C.C.C.C.C.C.C.C.C.C.C.C.C.C.C.G.G.G.G.G.G.G.G.G.",
"G.G.G.G.G.G.G.G.G.G.C.C.S.C.C.C.S.C.C.C.C.C.C.C.C.C.C.C.C.C.C.C.C.C.C.S.C.C.G.G.G.G.G.G.G.G.G.G.",
"G.G.G.G.G.G.G.G.G.G.G.G.A.S.A.A.S.S.S.S.S.C.S.S.S.S.C.S.S.C.S.S.S.C.S.S.G.G.G.G.G.G.G.G.G.G.G.G.",
"G.G.G.G.G.G.G.G.G.G.G.G.G.S.S.A.S.S.C.S.S.S.S.S.C.S.C.S.S.S.S.C.S.S.S.G.G.G.G.G.G.G.G.G.G.G.G.G.",
"G.G.G.G.G.G.G.G.G.G.G.G.G.G.G.G.S.S.S.S.S.S.S.S.S.S.S.S.S.S.S.S.G.G.G.G.G.G.G.G.G.G.G.G.G.G.G.G.",
"G.G.G.G.G.G.G.G.G.G.G.G.G.G.G.G.G.G.G.S.S.S.S.S.S.S.S.S.S.G.G.G.G.G.G.G.G.G.G.G.G.G.G.G.G.G.G.G."
};
