<svg width="48" height="48" xmlns="http://www.w3.org/2000/svg" xmlns:xlink="http://www.w3.org/1999/xlink">
    <defs>
        <filter x="-4.5%" y="-4.5%" width="109.1%" height="109.1%" filterUnits="objectBoundingBox" id="c">
            <feMorphology radius="2" in="SourceAlpha" result="shadowSpreadInner1"/>
            <feGaussianBlur stdDeviation="1" in="shadowSpreadInner1" result="shadowBlurInner1"/>
            <feOffset in="shadowBlurInner1" result="shadowOffsetInner1"/>
            <feComposite in="shadowOffsetInner1" in2="SourceAlpha" operator="arithmetic" k2="-1" k3="1" result="shadowInnerInner1"/>
            <feColorMatrix values="0 0 0 0 1 0 0 0 0 1 0 0 0 0 1 0 0 0 0.2 0" in="shadowInnerInner1"/>
        </filter>
        <filter x="-3.4%" y="-5.9%" width="106.8%" height="111.8%" filterUnits="objectBoundingBox" id="g">
            <feMorphology radius="1" in="SourceAlpha" result="shadowSpreadInner1"/>
            <feGaussianBlur stdDeviation="1" in="shadowSpreadInner1" result="shadowBlurInner1"/>
            <feOffset in="shadowBlurInner1" result="shadowOffsetInner1"/>
            <feComposite in="shadowOffsetInner1" in2="SourceAlpha" operator="arithmetic" k2="-1" k3="1" result="shadowInnerInner1"/>
            <feColorMatrix values="0 0 0 0 1 0 0 0 0 1 0 0 0 0 1 0 0 0 0.2 0" in="shadowInnerInner1"/>
        </filter>
        <filter x="-3.1%" y="-4.2%" width="87.5%" height="104.8%" filterUnits="objectBoundingBox" id="h">
            <feOffset dy="1" in="SourceAlpha" result="shadowOffsetOuter1"/>
            <feGaussianBlur stdDeviation=".5" in="shadowOffsetOuter1" result="shadowBlurOuter1"/>
            <feColorMatrix values="0 0 0 0 0 0 0 0 0 0 0 0 0 0 0 0 0 0 0.3 0" in="shadowBlurOuter1"/>
        </filter>
        <filter x="-13.6%" y="-7.7%" width="127.1%" height="127.4%" filterUnits="objectBoundingBox" id="j">
            <feOffset dy="1" in="SourceAlpha" result="shadowOffsetOuter1"/>
            <feGaussianBlur stdDeviation=".5" in="shadowOffsetOuter1" result="shadowBlurOuter1"/>
            <feColorMatrix values="0 0 0 0 0 0 0 0 0 0 0 0 0 0 0 0 0 0 0.3 0" in="shadowBlurOuter1"/>
        </filter>
        <path d="M22 0c12.15 0 22 9.85 22 22 0 1.164-.09 2.307-.265 3.423H.265A22.166 22.166 0 0 1 0 22C0 9.85 9.85 0 22 0z" id="f"/>
        <path d="M8 20.134a5.002 5.002 0 0 1 4.9 4H46v2H11v-1a3 3 0 0 0-6-.03v1.03H-6v-2h9.1a5.002 5.002 0 0 1 4.9-4zm27-8a8 8 0 0 1 7.996 7.75l.004.25h-2a6 6 0 0 0-11.996-.225l-.004.225v2H14.326a7.018 7.018 0 0 0-1.428-2.001L27 20.134l.004-.25A8 8 0 0 1 35 12.135zm-14-7c4.506 0 8.514 2.128 11.075 5.434a9.954 9.954 0 0 0-1.915.813A11.975 11.975 0 0 0 21 7.134c-6.29 0-11.451 4.84-11.959 11H7.035c.513-7.265 6.57-13 13.965-13z" id="i"/>
        <path d="m8 10.523 3.26-3.26a.854.854 0 0 1 1.208 1.207l-4.76 4.76a1 1 0 0 1-1.415 0l-4.76-4.76A.854.854 0 0 1 2.74 7.262L6 10.522V1.867a1 1 0 0 1 2 0v8.657z" id="k"/>
        <linearGradient x1="3.451%" y1="10.012%" x2="79.243%" y2="67.009%" id="b">
            <stop stop-color="#0CBED4" offset="0%"/>
            <stop stop-color="#09F" offset="100%"/>
        </linearGradient>
        <linearGradient x1="50%" y1="0%" x2="50%" y2="100%" id="e">
            <stop stop-color="#1B5EAA" offset="0%"/>
            <stop stop-color="#0B3D76" offset="100%"/>
        </linearGradient>
        <circle id="a" cx="22" cy="22" r="22"/>
    </defs>
    <g fill="none" fill-rule="evenodd">
        <rect fill="#6DBA19" width="48" height="48" rx="24"/>
        <g transform="translate(2 2)">
            <mask id="d" fill="#fff">
                <use xlink:href="#a"/>
            </mask>
            <use fill="url(#b)" xlink:href="#a"/>
            <use fill="#000" filter="url(#c)" xlink:href="#a"/>
            <g mask="url(#d)">
                <use fill-opacity=".8" fill="url(#e)" xlink:href="#f"/>
                <use fill="#000" filter="url(#g)" xlink:href="#f"/>
            </g>
            <g mask="url(#d)">
                <use fill="#000" filter="url(#h)" xlink:href="#i"/>
                <use fill="#FFF" xlink:href="#i"/>
            </g>
            <g mask="url(#d)">
                <g transform="translate(15 28.197)">
                    <use fill="#000" filter="url(#j)" xlink:href="#k"/>
                    <use fill="#FFF" xlink:href="#k"/>
                </g>
            </g>
        </g>
    </g>
</svg>
