/* XPM */
static char *Free_Converter_com_gooroom_logo_9124009[] = {
/* columns rows colors chars-per-pixel */
"48 48 256 2 ",
"   c #1F439C",
".  c #21469E",
"X  c #1F45A1",
"o  c #1B42AF",
"O  c #1A41B3",
"+  c #1B44BB",
"@  c #2047A5",
"#  c #254CA4",
"$  c #214AAC",
"%  c #2B55AD",
"&  c #224DB3",
"*  c #244FB9",
"=  c #2551B6",
"-  c #2E5AB3",
";  c #2654BD",
":  c #336ABD",
">  c #1A44C1",
",  c #1E4AC3",
"<  c #1944CA",
"1  c #1844D2",
"2  c #1D4CD2",
"3  c #1745D9",
"4  c #1748DF",
"5  c #1B4EDC",
"6  c #1E50D7",
"7  c #1C51DD",
"8  c #224ACD",
"9  c #2C4ACF",
"0  c #295AC3",
"q  c #295CCA",
"w  c #224CD1",
"e  c #2A4CD2",
"r  c #2557D0",
"t  c #2452DB",
"y  c #2850DB",
"u  c #3957D4",
"i  c #3055DA",
"p  c #335BDE",
"a  c #3859D8",
"s  c #2F62CC",
"d  c #3977C6",
"f  c #3C7ECC",
"g  c #2B64DB",
"h  c #3066D1",
"j  c #326AD5",
"k  c #346ED9",
"l  c #3276D5",
"z  c #3773DD",
"x  c #194CE2",
"c  c #164BEC",
"v  c #184CEC",
"b  c #1B53E4",
"n  c #1B54ED",
"m  c #164DF3",
"M  c #194FF6",
"N  c #1752F6",
"B  c #1B56F4",
"V  c #1D5AF5",
"C  c #1955FC",
"Z  c #1C5BFD",
"A  c #2554E5",
"S  c #2956E2",
"D  c #265AE3",
"F  c #2A5BE5",
"G  c #2757EC",
"H  c #245BEB",
"J  c #295AE9",
"K  c #235CF4",
"L  c #295FF0",
"P  c #215DFD",
"I  c #1F62FD",
"U  c #2661E5",
"Y  c #2F6EE1",
"T  c #2563EC",
"R  c #2B63EC",
"E  c #276AEE",
"W  c #2C6CEB",
"Q  c #3C6FEA",
"!  c #3564E3",
"~  c #2874E6",
"^  c #2676ED",
"/  c #2D75EB",
"(  c #2F78EC",
")  c #3176E6",
"_  c #3274ED",
"`  c #3973E9",
"'  c #337AED",
"]  c #2364F5",
"[  c #2A67F0",
"{  c #2163FD",
"}  c #246CFE",
"|  c #2B69F3",
" . c #2676F6",
".. c #2A73F3",
"X. c #2679F6",
"o. c #2674FE",
"O. c #2873FE",
"+. c #277AFD",
"@. c #297CFD",
"#. c #2C7CF5",
"$. c #367AF1",
"%. c #4D66D5",
"&. c #4466DE",
"*. c #4967DC",
"=. c #4D6ADC",
"-. c #5066D1",
";. c #5F79D4",
":. c #597DDF",
">. c #4467E1",
",. c #4C6DE1",
"<. c #4E73E5",
"1. c #4973EA",
"2. c #547AE3",
"3. c #577DE8",
"4. c #5A7BE3",
"5. c #3781DA",
"6. c #3C87DC",
"7. c #3381E1",
"8. c #3F8FE0",
"9. c #3082E8",
"0. c #368CEA",
"q. c #3C83E2",
"w. c #3D99EF",
"e. c #3D95EA",
"r. c #2B81F0",
"t. c #2B83FE",
"y. c #2E8EFC",
"u. c #3485F4",
"i. c #3E83F5",
"p. c #328BF6",
"a. c #3786F9",
"s. c #3886F9",
"d. c #378CF9",
"f. c #388CF9",
"g. c #2F91FE",
"h. c #3395F7",
"j. c #3C96F0",
"k. c #3699F5",
"l. c #3C9FF5",
"z. c #3295FD",
"x. c #3A96FC",
"c. c #349CFD",
"v. c #3A9BFC",
"b. c #3BA5F7",
"n. c #36A3FE",
"m. c #39A5FD",
"M. c #37A8FE",
"N. c #3BACFF",
"B. c #3EB3FF",
"V. c #4085D1",
"C. c #4289D6",
"Z. c #438CD9",
"A. c #4691DD",
"S. c #6681D5",
"D. c #6884D9",
"F. c #678BDB",
"G. c #6284DB",
"H. c #758FD8",
"J. c #7B92D3",
"K. c #568BED",
"L. c #5C8BEA",
"P. c #4593E3",
"I. c #4997E2",
"U. c #4A9BE6",
"Y. c #4697E9",
"T. c #4799EB",
"R. c #4B9DEB",
"E. c #448DFB",
"W. c #439EF2",
"Q. c #4B91FA",
"!. c #5591F5",
"~. c #5E97F5",
"^. c #5E98F7",
"/. c #5899FA",
"(. c #6081E1",
"). c #678CE6",
"_. c #6695EF",
"`. c #7796E5",
"'. c #799AE0",
"]. c #6293F0",
"[. c #4EA2ED",
"{. c #50A5EF",
"}. c #46A5F4",
"|. c #4DA4F3",
" X c #42AAF7",
".X c #4DA9F6",
"XX c #43ACFA",
"oX c #4BADF8",
"OX c #50A7F2",
"+X c #52A9F6",
"@X c #52ADFA",
"#X c #41B6FF",
"$X c #4CB2FC",
"%X c #42B9FF",
"&X c #7EA2E5",
"*X c #7BA5EC",
"=X c #67A1F9",
"-X c #73A8F9",
";X c #879FDF",
":X c #90A6D8",
">X c #9BABD5",
",X c #A6B8DD",
"<X c #B7BED3",
"1X c #89A0E0",
"2X c #8FAFE6",
"3X c #83A6EA",
"4X c #86A8E8",
"5X c #99AFE7",
"6X c #96B5E7",
"7X c #9DB7EE",
"8X c #9AB9EE",
"9X c #86ABF1",
"0X c #8CB3F5",
"qX c #89B6F9",
"wX c #91B6F3",
"eX c #97BBF6",
"rX c #A7BDE9",
"tX c #A8BCE3",
"yX c #A3BFF3",
"uX c #B6C3DC",
"iX c #AFC3E5",
"pX c #ACC5EE",
"aX c #B5C4EB",
"sX c #B3C9EE",
"dX c #BFCBEC",
"fX c #A6C2F4",
"gX c #A9C3F3",
"hX c #A1C3F9",
"jX c #BBCCF0",
"kX c #B5CFF8",
"lX c #BDD1F5",
"zX c #C4C7D3",
"xX c #C9CBD4",
"cX c #C5CBDB",
"vX c #CFD2DB",
"bX c #DDDDDD",
"nX c #C7D2E6",
"mX c #CFD5E2",
"MX c #CED7EA",
"NX c #D7DDE5",
"BX c #DDDFE5",
"VX c #D3DAEF",
"CX c #C3D4F3",
"ZX c #CAD6F0",
"AX c #DEE2E9",
"SX c #D5E2F7",
"DX c #DEE6F4",
"FX c #E4E4E4",
"GX c #ECECEC",
"HX c #E1E4EC",
"JX c #E0E5F0",
"KX c #E3EAF4",
"LX c #E8ECF4",
"PX c #ECF0F6",
"IX c #F4F4F4",
"UX c None",
/* pixels */
"UXUXUXUXUXUXUXUXUXUXUXUXUXUXUXUXUXUXUXUXUXUXUXUXUXUXUXUXUXUXUXUXUXUXUXUXUXUXUXUXUXUXUXUXUXUXUXUX",
"UXUXUXUXUXUXUXUXUXUXUXUXUXUXUXUXUXUXUXUXUXUXUXUXUXUXUXUXUXUXUXUXUXUXUXUXUXUXUXUXUXUXUXUXUXUXUXUX",
"UXUXUXUXUXUXUXUXUXUXUXUXUXUXUXUXUXUXUX@XoX+X@X$X.X.X+X|.|.UXUXUXUXUXUXUXUXUXUXUXUXUXUXUXUXUXUXUX",
"UXUXUXUXUXUXUXUXUXUXUXUXUXUXUXUX@X@X$X$X$X%X%XB.B.#X#XXXXX}.|.|.UXUXUXUXUXUXUXUXUXUXUXUXUXUXUXUX",
"UXUXUXUXUXUXUXUXUXUXUXUXUXUX@X$X$X%X%XB.%XB.B.B.B.B.N.B.B.B.N.b.W.R.UXUXUXUXUXUXUXUXUXUXUXUXUXUX",
"UXUXUXUXUXUXUXUXUXUXUXUX@X$X%X%X%X%X%XB.B.B.B.B.B.B.B.B.N.N.N.N.N.m.W.T.UXUXUXUXUXUXUXUXUXUXUXUX",
"UXUXUXUXUXUXUXUXUXUXUX@X$X%X%X%X%X%X%X%XB.B.B.B.N.N.N.N.N.N.N.M.M.M.M.l.Y.UXUXUXUXUXUXUXUXUXUXUX",
"UXUXUXUXUXUXUXUXUX@X$X%X%X%X%X%X%X%XB.B.B.B.B.B.N.B.N.N.M.N.M.M.M.M.n.M.v.w.P.UXUXUXUXUXUXUXUXUX",
"UXUXUXUXUXUXUXUX@X$X%X%X%X%XB.B.B.B.B.B.B.N.B.B.N.N.N.N.N.M.M.n.n.n.n.n.c.n.k.6.UXUXUXUXUXUXUXUX",
"UXUXUXUXUXUXUX@X$X%X%X%X%X%X%XB.B.B.B.B.v.x.f.f.a.f.f.v.n.M.n.M.n.n.n.n.c.c.g.( z UXUXUXUXUXUXUX",
"UXUXUXUXUXUXUX$X%X%X%X%X%XB.B.B.B.N.v.Q.qXkXDXPXLXDXlXeX~.f.h.n.n.n.n.c.c.g.t.y.) UXUXUXUXUXUXUX",
"UXUXUXUXUXUX@X%X#X%X%X%XB.#XB.B.v.E.hXIXIXIXIXIXIXIXIXIXIXlX~.d.c.c.c.c.g.t.t.t.r.z UXUXUXUXUXUX",
"UXUXUXUXUX+XoXB.#X#XB.B.#XB.B.x.=XLXIXIXIXIXIXIXIXIXIXIXIXIXIXwXu.z.n.g.t.t.@.t.@./ j UXUXUXUXUX",
"UXUXUXUXUXoX#X#X#X#XB.B.B.B.v.-XIXIXIXIXIXIXIXIXIXIXIXIXIXIXIXIXfXu.y.t.t.@.t.@.@.@.Y UXUXUXUXUX",
"UXUXUXUXOX#X#X#X#X#XB.B.B.v./.IXIXIXIXIXGXGXGXFXGXGXGXGXIXIXIXIXIX9XR t.t.@.@.+.+.+...h UXUXUXUX",
"UXUXUXUX.X#X#X#XB.B.B.B.N.f.KXIXIXIXGXAXiX6X4X*X*X3X2XtXcXBXGXIXIXIX1.| @.@.@.@.o.+.o.g UXUXUXUX",
"UXUXUX{.XX#XB.XXB.B.B.B.v.qXIXIXIXPXpXi.( ( ^ ( ^ ( / _ _ K.&XuXbXIXZXF  .@.+.o.o.o.o.E s UXUXUX",
"UXUXUX[.#XB.B.B.N.B.N.XXs.PXIXIXIXIX!.~ ^ X.X.X.@.X.X.X.X. .W F 2.,XGX3.H } o.o.o.o.} } s UXUXUX",
"UXUXUX|.#XB.B.N.B.N.N.m.^.IXIXIXIXDX$.^ @.+.@.@.@.X.@.+.@.} ] ] H S '.4XJ I o.o.o.} } } g UXUXUX",
"UXUXR.}.B.B.B.B.N.N.N.x.wXIXIXIXIXlX' X.@.@.+.o.@.@.@.@.} { { P { ] A p H K Z } } } } } U s UXUX",
"UXUXR. XN.B.N.N.N.N.N.f.pXIXIXIXIXgX/  .@.@.@.#.]._.K.Q L L ] P { P P P P P P I } } I } ] 0 UXUX",
"UXUXU.XXB.N.XXN.N.N.N.f.sXIXIXIXIXyX/  .o.@.o._ LXIXIXKXdX3X<.F L { P I { { Z { I I } I I ; UXUX",
"UXUXU.N.XXN.N.N.b.N.n.f.pXIXIXIXIXgX/  .@.o.@._ MXIXIXIXIXIXIXZX).S G P P Z P Z Z Z I I I ; UXUX",
"UXUXI.N.N.N.m.N.N.M.M.f.7XIXIXIXIXlX/  .o.+.o._ mXbXFXGXGXIXIXIXIXZX:.J Z P P Z I Z I I I ; UXUX",
"UXUXI.b.N.N.n.N.M.M.m.x.*XGXIXIXIXKX_  .O.O.O.| ,.4.F.:XvXFXGXIXIXIXIX`.A P Z Z Z Z Z I I ; UXUX",
"UXUXI.b.M.N.m.n.n.n.v.c.K.GXIXIXIXIXK...o.O.} P L G S S p G.BXIXIXIXGX5Xt V P Z Z Z Z Z V = UXUX",
"UXUXI.b.m.N.m.m.n.n.c.n.$.AXIXIXIXIXyXW o.} P P P P K V G i GXIXIXIXGX=.7 V Z Z I Z Z Z n = UXUX",
"UXUXA.w.m.n.M.v.n.c.n.n.u.rXGXIXIXIXIXQ | P P P P P P P S iXIXIXIXGXHXr b V Z Z Z Z Z Z b & UXUX",
"UXUXA.e.v.n.n.n.n.c.c.c.x.L.GXIXIXIXIXyXS P P P P P P G ,.IXIXIXIXGX;Xw B Z Z Z C Z Z C 6 & UXUX",
"UXUXUX8.k.n.n.v.n.c.c.z.z._ nXGXIXIXIXIX2.G P P P P G i JXIXGXIXGXGXu 7 B Z Z C Z Z Z C , UXUXUX",
"UXUXUXZ.k.n.c.c.c.c.c.z.z.d.L.FXIXIXIXIXIX>.G P Z K y dXIXGXIXIXGX;X2 b Z Z Z Z C Z C N $ UXUXUX",
"UXUXUXC.0.c.c.c.c.z.z.z.z.z.$.tXFXIXIXIXIXLX=.A G i aXIXIXIXIXGXBXe 7 B Z C Z C Z C C 7 $ UXUXUX",
"UXUXUXUX6.h.k.c.z.z.z.g.g.g.y.! vXFXIXIXIXIXIX(.*.VXIXGXGXIXGXFX-.w n Z C Z C C C C N + UXUXUXUX",
"UXUXUXUX6.0.h.z.z.z.z.g.g.g.t.R &.bXGXIXIXIXIXIXIXIXIXIXIXIXFXD.w b B Z Z C Z C C C b $ UXUXUXUX",
"UXUXUXUXUX5.y.h.z.z.g.g.g.t.@.o.U =.bXFXGXIXIXIXIXIXIXIXGXFXH.8 7 B C Z C Z C C C N > UXUXUXUXUX",
"UXUXUXUXUXV.5.y.z.g.g.g.t.O.O.O.o.F *.cXFXGXIXIXGXIXGXGXFXS.8 7 B C Z C Z C C C N 2 @ UXUXUXUXUX",
"UXUXUXUXUXUXf 9.y.g.g.@.O.O.O.} } } J a >XbXFXIXIXGXFXcX-.8 x B N Z C C C C C C b @ UXUXUXUXUXUX",
"UXUXUXUXUXUXUXl ( y.@.O.O.O.O.} } } } G e ;.uXxXxXzXJ.9 w b B C Z C C C C C N m + UXUXUXUXUXUXUX",
"UXUXUXUXUXUXUXd l ..O.O.} O.} } } { { } ] A e e 9 9 w 5 v B C C C C C C C N m > X UXUXUXUXUXUXUX",
"UXUXUXUXUXUXUXUX: q T | } { } } } } { { { Z B n n n n N C C C Z C C C C C c > X UXUXUXUXUXUXUXUX",
"UXUXUXUXUXUXUXUXUX- 0 D ] } } { { } I I { I Z Z C Z C C C C C C C C N N 4 + X UXUXUXUXUXUXUXUXUX",
"UXUXUXUXUXUXUXUXUXUXUX- r T { { { { I { I I I Z C Z C C C C C C C N m 1   UXUXUXUXUXUXUXUXUXUXUX",
"UXUXUXUXUXUXUXUXUXUXUXUX% ; t V ] I { I I I Z I Z C C C C C N N m 3 O   UXUXUXUXUXUXUXUXUXUXUXUX",
"UXUXUXUXUXUXUXUXUXUXUXUXUXUX% = w n B V Z Z Z Z Z Z M C M m c 1 O   UXUXUXUXUXUXUXUXUXUXUXUXUXUX",
"UXUXUXUXUXUXUXUXUXUXUXUXUXUXUXUX# % & , w 5 v n v v 4 1 > o     UXUXUXUXUXUXUXUXUXUXUXUXUXUXUXUX",
"UXUXUXUXUXUXUXUXUXUXUXUXUXUXUXUXUXUXUX# # . # . @ .   .   UXUXUXUXUXUXUXUXUXUXUXUXUXUXUXUXUXUXUX",
"UXUXUXUXUXUXUXUXUXUXUXUXUXUXUXUXUXUXUXUXUXUXUXUXUXUXUXUXUXUXUXUXUXUXUXUXUXUXUXUXUXUXUXUXUXUXUXUX",
"UXUXUXUXUXUXUXUXUXUXUXUXUXUXUXUXUXUXUXUXUXUXUXUXUXUXUXUXUXUXUXUXUXUXUXUXUXUXUXUXUXUXUXUXUXUXUXUX"
};
